<svg xmlns="http://www.w3.org/2000/svg" width="484.1" height="101.9" viewBox="0 0 484.1 101.9"><path d="M104.7,16.8l-5.6-5.6L80.4,29.8V0h-8V29.8L53.7,11.2l-5.6,5.6L72.4,41.2V52.4L53.7,33.8,32.3,12.3V0h-8V12.3L0,36.7l5.6,5.6L24.3,23.7V34.9L0,59.3l5.6,5.6L24.3,46.3v55.6h8V46.3L51,64.9l5.6-5.6L32.3,34.9V23.7L48.1,39.4,49.7,41,51,42.3,72.4,63.8v38.1h8V63.8l24.3-24.4-5.6-5.6L80.4,52.4V41.2Z"/><path d="M127.4,76.4h9V55.3h22.5V47.1H136.4V33.7h23.8V25.5H127.4Z"/><path d="M211.6,31.4A24.113,24.113,0,0,0,203,26a29.039,29.039,0,0,0-10.9-1.8,30.728,30.728,0,0,0-10.8,1.9,23.714,23.714,0,0,0-8.5,5.4,25.673,25.673,0,0,0-5.6,8.5,28.012,28.012,0,0,0-2,11.1,27.367,27.367,0,0,0,2,10.9,24.273,24.273,0,0,0,14.1,13.8,30.728,30.728,0,0,0,10.8,1.9,31.383,31.383,0,0,0,10.9-2,24.709,24.709,0,0,0,14.2-13.9,27.367,27.367,0,0,0,2-10.9,28.011,28.011,0,0,0-2-11.1A25.253,25.253,0,0,0,211.6,31.4Zm-3.1,26.8a17.479,17.479,0,0,1-3.6,6,15.606,15.606,0,0,1-5.5,4,17.776,17.776,0,0,1-7.2,1.4,16.251,16.251,0,0,1-7.2-1.4,15.606,15.606,0,0,1-5.5-4,17.479,17.479,0,0,1-3.6-6,21.144,21.144,0,0,1-1.3-7.5,19.4,19.4,0,0,1,1.3-7.1,17.606,17.606,0,0,1,3.6-5.8,15.346,15.346,0,0,1,5.5-3.9,19.214,19.214,0,0,1,14.4,0,15.346,15.346,0,0,1,5.5,3.9,17.606,17.606,0,0,1,3.6,5.8,19.4,19.4,0,0,1,1.3,7.1A21.144,21.144,0,0,1,208.5,58.2Z"/><path d="M259.8,49.4a14.127,14.127,0,0,0,3.1-9.3,14.51,14.51,0,0,0-1.6-7.1,12.086,12.086,0,0,0-4.2-4.5,18.763,18.763,0,0,0-6.1-2.3,33.533,33.533,0,0,0-7.1-.7H226.2V76.4h9.1V54.9h6.6l11.8,21.6h10.9L251.1,53.9A12.814,12.814,0,0,0,259.8,49.4Zm-13.6-2.5-3.9.2h-7V33.3h7.8l3.6.2a9.538,9.538,0,0,1,3.3.9,5.2,5.2,0,0,1,2.4,2,5.721,5.721,0,0,1,.9,3.6,6.707,6.707,0,0,1-1,3.9,6.554,6.554,0,0,1-2.6,2.1,10.636,10.636,0,0,1-3.5.9Z"/><path d="M279.9,54.4h23.4V46.2H279.9V33.7h24.7V25.5H270.9V76.4h35V68.2h-26Z"/><path d="M340,49.8a25.128,25.128,0,0,0-5.8-2.6l-5.8-1.9a19.477,19.477,0,0,1-4.5-2.4,4.872,4.872,0,0,1-1.8-4,6.3,6.3,0,0,1,.7-3,6.06,6.06,0,0,1,1.9-2,8.083,8.083,0,0,1,2.7-1.1,11,11,0,0,1,3.1-.4,12.882,12.882,0,0,1,5.1,1,8.21,8.21,0,0,1,3.8,3.1l6.6-7a18.009,18.009,0,0,0-6.8-4,25.911,25.911,0,0,0-7.8-1.2,26.665,26.665,0,0,0-6.9.9,18.337,18.337,0,0,0-6,2.8,14.881,14.881,0,0,0-4.2,4.8,13.384,13.384,0,0,0-1.6,6.8,13.1,13.1,0,0,0,1.8,7.2,14.2,14.2,0,0,0,4.5,4.3,25.128,25.128,0,0,0,5.8,2.6l5.8,2a15.552,15.552,0,0,1,4.5,2.6,5.464,5.464,0,0,1,1.8,4.3,6.5,6.5,0,0,1-.8,3.1,6.3,6.3,0,0,1-2.1,2.2,10.758,10.758,0,0,1-2.9,1.3,12.036,12.036,0,0,1-13.2-4.9L311,70.8a18.078,18.078,0,0,0,7.5,5.3,25.662,25.662,0,0,0,9.1,1.6,24.368,24.368,0,0,0,7.1-1,17.357,17.357,0,0,0,5.9-3,15.662,15.662,0,0,0,4.1-5.1,15.061,15.061,0,0,0,1.5-7.2,13.223,13.223,0,0,0-1.8-7.3,13.909,13.909,0,0,0-4.4-4.3Z"/><path d="M350.1,33.7h15.6V76.4h9V33.7h15.6V25.5H350.1Z"/><path d="M431.9,49.4a14.127,14.127,0,0,0,3.1-9.3,14.51,14.51,0,0,0-1.6-7.1,12.086,12.086,0,0,0-4.2-4.5,18.763,18.763,0,0,0-6.1-2.3,33.533,33.533,0,0,0-7.1-.7H398.3V76.4h9.1V54.9H414l11.8,21.6h10.9L423.2,53.9A12.814,12.814,0,0,0,431.9,49.4Zm-13.6-2.5-3.9.2h-7V33.3h7.8l3.6.2a9.538,9.538,0,0,1,3.3.9,5.2,5.2,0,0,1,2.4,2,5.721,5.721,0,0,1,.9,3.6,6.707,6.707,0,0,1-1,3.9,6.554,6.554,0,0,1-2.6,2.1A10.636,10.636,0,0,1,418.3,46.9Z"/><path d="M473.3,25.5,460.6,45.8,448.1,25.5H436.8l19.1,29.1V76.4h9V54.6l19.2-29.1Z"/></svg>