<svg xmlns="http://www.w3.org/2000/svg" xmlns:xlink="http://www.w3.org/1999/xlink" width="169.923" height="32.407" viewBox="0 0 169.923 32.407"><defs><linearGradient id="a" x1="0.5" x2="0.5" y2="1" gradientUnits="objectBoundingBox"><stop offset="0" stop-color="#00583e"/><stop offset="1" stop-color="#00835c"/></linearGradient></defs><g transform="translate(-0.007 -0.023)"><g transform="translate(-1423 -4566)"><g transform="translate(1423 4566)"><path d="M29.348,13.433a2.978,2.978,0,0,1,3.077,2.7c.584,7.558-6.333,16.024-16.079,16.294A16.1,16.1,0,0,1,.009,16.11a2.843,2.843,0,0,1,5.687,0A10.417,10.417,0,0,0,16.207,26.753c6.466-.18,10.669-5.778,10.451-10.35A2.834,2.834,0,0,1,29.348,13.433Z" fill="url(#a)"/><path d="M22.28,16.33a2.914,2.914,0,0,1,2.923-2.9h4.259a2.905,2.905,0,1,1,0,5.81H25.2A2.914,2.914,0,0,1,22.28,16.33Z" fill="#00a672"/><path d="M13.343,16.334a2.9,2.9,0,1,1,2.9,2.909A2.906,2.906,0,0,1,13.343,16.334Z" fill="#00a672"/><path d="M19.067,2.742a2.834,2.834,0,0,1-2.71,2.953C9.618,5.975,5.5,11.273,5.7,16.3a2.814,2.814,0,0,1-2.689,2.948,2.921,2.921,0,0,1-3-2.767A16.265,16.265,0,0,1,16.123.025,2.832,2.832,0,0,1,19.067,2.742Z" fill="#00a672" fill-rule="evenodd"/><g transform="translate(40.811 2.783)"><path d="M13.264,15.436h5.459a8.583,8.583,0,0,1-1.308,2.783,6.319,6.319,0,0,1-2.265,1.952,7.274,7.274,0,0,1-3.413.736,7.872,7.872,0,0,1-3.987-1.024,7.429,7.429,0,0,1-2.775-2.847,8.752,8.752,0,0,1-1.021-4.287A8.457,8.457,0,0,1,4.976,8.493,7.423,7.423,0,0,1,7.783,5.678a8.009,8.009,0,0,1,3.955-.992,7.656,7.656,0,0,1,3.955.96,6.932,6.932,0,0,1,2.584,2.56l3.062-2.08a10.26,10.26,0,0,0-3.923-3.647,11.752,11.752,0,0,0-5.678-1.312,12.557,12.557,0,0,0-4.689.864A11.149,11.149,0,0,0,3.317,4.4,11.047,11.047,0,0,0,.861,8.077,12.259,12.259,0,0,0,0,12.748a12.5,12.5,0,0,0,.861,4.7,11,11,0,0,0,2.424,3.711,11.31,11.31,0,0,0,3.732,2.432,12.731,12.731,0,0,0,4.657.832,11.194,11.194,0,0,0,4.753-.96A10.107,10.107,0,0,0,19.9,20.779a11.585,11.585,0,0,0,2.105-3.871,14.107,14.107,0,0,0,.638-4.671H13.719Z" fill="#0d2c38"/><path d="M33.014,12.94,34.7,10a2.951,2.951,0,0,0-1.212-.832,4.341,4.341,0,0,0-1.5-.256,3.321,3.321,0,0,0-1.818.576,4.789,4.789,0,0,0-1.531,1.536V9.229H25.231V23.946h3.413V15.66a4.957,4.957,0,0,1,.574-2.56,1.992,1.992,0,0,1,1.85-.96,2.2,2.2,0,0,1,1.053.224A4.446,4.446,0,0,1,33.014,12.94Z" fill="#0d2c38"/><path d="M36.431,9.229V23.946h3.381V9.229Zm-.478-5.4a1.994,1.994,0,0,0,.638,1.5,2.141,2.141,0,0,0,1.531.608,2.18,2.18,0,0,0,1.563-.608,1.994,1.994,0,0,0,.638-1.5,1.994,1.994,0,0,0-.638-1.5,2.18,2.18,0,0,0-1.563-.608,2.141,2.141,0,0,0-1.531.608A1.994,1.994,0,0,0,35.952,3.831Z" fill="#0d2c38"/><path d="M45.6,16.588A4.443,4.443,0,0,1,46.9,13.164,4.332,4.332,0,0,1,50,11.916a3.9,3.9,0,0,1,1.946.544,4.414,4.414,0,0,1,1.595,1.6,4.693,4.693,0,0,1,.638,2.527,4.862,4.862,0,0,1-.638,2.56,4.488,4.488,0,0,1-1.595,1.568A3.9,3.9,0,0,1,50,21.259,4.392,4.392,0,0,1,46.9,20.043,4.549,4.549,0,0,1,45.6,16.588Zm-3.572,0a8.243,8.243,0,0,0,.989,4.159,7.028,7.028,0,0,0,2.615,2.624,7.221,7.221,0,0,0,3.541.9,5.842,5.842,0,0,0,2.871-.7,5.956,5.956,0,0,0,2.137-2.048v2.432h3.477V.041H54.176V11.66a5.9,5.9,0,0,0-5.008-2.751,7.025,7.025,0,0,0-3.541.928,6.731,6.731,0,0,0-2.615,2.624A8.065,8.065,0,0,0,42.024,16.588Z" fill="#0d2c38"/><path d="M61.568,18.635l-2.009,1.952a8.7,8.7,0,0,0,2.711,2.719,7.078,7.078,0,0,0,3.86,1.088,6.084,6.084,0,0,0,3.8-1.12,4.121,4.121,0,0,0,1.5-3.487,3.7,3.7,0,0,0-.574-2.144,4.662,4.662,0,0,0-1.5-1.376,12.258,12.258,0,0,0-1.978-.992q-.829-.352-1.69-.64a5.486,5.486,0,0,1-1.372-.672,1.167,1.167,0,0,1-.542-.992,1.014,1.014,0,0,1,.51-.96,2.809,2.809,0,0,1,1.435-.32,3.918,3.918,0,0,1,1.85.512,6.158,6.158,0,0,1,1.722,1.312L71.2,11.532a6.2,6.2,0,0,0-2.36-1.856,7.1,7.1,0,0,0-3.285-.768,6.3,6.3,0,0,0-2.456.48,4.5,4.5,0,0,0-1.85,1.376,3.421,3.421,0,0,0-.7,2.176,3.816,3.816,0,0,0,.606,2.24,4.887,4.887,0,0,0,1.595,1.344,20.924,20.924,0,0,0,1.978.928,15.784,15.784,0,0,1,2.233,1.024,1.664,1.664,0,0,1,.989,1.5,1.286,1.286,0,0,1-.542,1.12,2.506,2.506,0,0,1-1.435.352,4.178,4.178,0,0,1-2.169-.768A11.063,11.063,0,0,1,61.568,18.635Z" fill="#0d2c38"/><path d="M76.4,16.588a4.615,4.615,0,0,1,1.244-3.359,4.244,4.244,0,0,1,3.126-1.28,4.178,4.178,0,0,1,3.126,1.28,4.615,4.615,0,0,1,1.244,3.359A4.684,4.684,0,0,1,83.9,19.947a4.178,4.178,0,0,1-3.126,1.28,4.244,4.244,0,0,1-3.126-1.28A4.684,4.684,0,0,1,76.4,16.588Zm-3.54,0a7.715,7.715,0,0,0,1.021,4,7.57,7.57,0,0,0,2.839,2.719,8.541,8.541,0,0,0,4.051.96,8.422,8.422,0,0,0,4.051-.96,7.33,7.33,0,0,0,2.807-2.719,7.533,7.533,0,0,0,1.053-4,7.532,7.532,0,0,0-1.053-4A7.1,7.1,0,0,0,84.826,9.9a8.2,8.2,0,0,0-4.051-.992,8.318,8.318,0,0,0-4.051.992,7.327,7.327,0,0,0-2.839,2.688A7.714,7.714,0,0,0,72.864,16.588Z" fill="#0d2c38"/><path d="M111.7,14.6a6.657,6.657,0,0,0-1.149-4.223,4.209,4.209,0,0,0-3.54-1.472,5.24,5.24,0,0,0-2.679.7,5.165,5.165,0,0,0-1.945,1.888q-.99-2.591-4.211-2.592a4.52,4.52,0,0,0-2.487.672,4.887,4.887,0,0,0-1.627,1.792V9.229H90.678V23.946h3.381V14.988a3.613,3.613,0,0,1,.734-2.368,2.651,2.651,0,0,1,2.168-.928,2.046,2.046,0,0,1,1.883.864,4.472,4.472,0,0,1,.542,2.432v8.958h3.477V14.988a3.613,3.613,0,0,1,.734-2.368,2.651,2.651,0,0,1,2.168-.928,2.046,2.046,0,0,1,1.883.864,4.274,4.274,0,0,1,.574,2.432v8.958H111.7Z" fill="#0d2c38"/><path d="M117.349,17.387h11.707a4.15,4.15,0,0,0,.032-.512,3.689,3.689,0,0,0,.032-.448,7.714,7.714,0,0,0-2.3-5.5,7.1,7.1,0,0,0-5.358-2.016,7.613,7.613,0,0,0-5.136,1.7,7.2,7.2,0,0,0-2.392,4.415q-.066.384-.1.768t-.032.8a8.4,8.4,0,0,0,.925,3.967,6.846,6.846,0,0,0,2.616,2.719,7.676,7.676,0,0,0,3.955.992,8.412,8.412,0,0,0,4.5-1.088,9.428,9.428,0,0,0,3.191-2.88l-3.318-1.216a4.535,4.535,0,0,1-4.21,2.335,4.072,4.072,0,0,1-2.808-.992A4.544,4.544,0,0,1,117.349,17.387Zm.064-2.4a3.752,3.752,0,0,1,1.34-2.527,4.059,4.059,0,0,1,2.681-.928,3.375,3.375,0,0,1,2.551.928,4.249,4.249,0,0,1,1.085,2.527Z" fill="#0d2c38"/></g></g></g></g></svg>