<svg xmlns="http://www.w3.org/2000/svg" xmlns:xlink="http://www.w3.org/1999/xlink" width="179.541" height="22.26" viewBox="0 0 179.541 22.26"><defs><linearGradient id="a" x1="-0.028" y1="0.32" x2="1" y2="0.676" gradientUnits="objectBoundingBox"><stop offset="0" stop-color="#2298bd"/><stop offset="1" stop-color="#0ed7b5"/></linearGradient></defs><g transform="translate(-1208 -4571)"><g transform="translate(1208 4571)"><path d="M18.55,0Q11.13,0,9.275,7.42q2.782-3.71,6.492-2.782A7.908,7.908,0,0,1,19.3,7.147c1.819,1.846,3.924,3.983,8.521,3.983q7.42,0,9.275-7.42-2.782,3.71-6.492,2.782a7.908,7.908,0,0,1-3.536-2.51C25.252,2.137,23.147,0,18.55,0ZM9.275,11.13q-7.42,0-9.275,7.42,2.782-3.71,6.492-2.782a7.908,7.908,0,0,1,3.536,2.51c1.819,1.846,3.924,3.983,8.521,3.983q7.42,0,9.275-7.42-2.782,3.71-6.492,2.782a7.908,7.908,0,0,1-3.536-2.51C15.977,13.266,13.872,11.13,9.275,11.13Z" fill-rule="evenodd" fill="url(#a)"/><path d="M55.646,9.379H52.409v6.266c0,1.671,1.1,1.645,3.237,1.54v2.532c-4.334.522-6.057-.679-6.057-4.073V9.379h-2.4V6.664h2.4V3.158l2.82-.835V6.664h3.237Zm12.34-2.715h2.82V19.718h-2.82v-1.88a5.364,5.364,0,0,1-4.569,2.219,6.671,6.671,0,0,1-6.5-6.866,6.655,6.655,0,0,1,6.5-6.866,5.41,5.41,0,0,1,4.569,2.193Zm-4.125,10.7a4.034,4.034,0,0,0,4.125-4.177,4.125,4.125,0,1,0-8.25,0A4.034,4.034,0,0,0,63.862,17.368ZM75.505,4.706a1.8,1.8,0,1,1,1.8-1.8A1.822,1.822,0,0,1,75.505,4.706ZM74.1,19.718V6.664h2.82V19.718Zm6.083,0V.66H83V19.718ZM101.3,6.664h2.976l-4.1,13.053H97.409l-2.715-8.8-2.741,8.8H89.185l-4.1-13.053h2.976l2.532,9.007,2.741-9.007h2.689l2.715,9.007Zm6.475-1.958a1.8,1.8,0,1,1,1.8-1.8A1.822,1.822,0,0,1,107.773,4.706Zm-1.41,15.011V6.664h2.82V19.718ZM119.313,6.325c2.924,0,5.013,1.984,5.013,5.378v8.015h-2.82V11.99a2.721,2.721,0,0,0-2.924-3.028c-1.854,0-3.316,1.1-3.316,3.759v7h-2.82V6.664h2.82V8.335A4.494,4.494,0,0,1,119.313,6.325Zm18.379-4.882h2.82V19.718h-2.82v-1.88a5.364,5.364,0,0,1-4.569,2.219,6.671,6.671,0,0,1-6.5-6.866,6.655,6.655,0,0,1,6.5-6.866,5.41,5.41,0,0,1,4.569,2.193Zm-4.125,15.925a4.034,4.034,0,0,0,4.125-4.177,4.125,4.125,0,1,0-8.25,0A4.034,4.034,0,0,0,133.567,17.368Zm16.4,2.689a6.751,6.751,0,0,1-6.892-6.866,6.735,6.735,0,0,1,6.892-6.866,6.449,6.449,0,0,1,5.822,3.368l-2.428,1.41a3.649,3.649,0,0,0-3.42-2.01,3.982,3.982,0,0,0-4.047,4.1,3.982,3.982,0,0,0,4.047,4.1,3.831,3.831,0,0,0,3.472-2.01l2.428,1.384A6.563,6.563,0,0,1,149.962,20.057Zm10.521-9.79c0,2.376,7.023.94,7.023,5.77,0,2.611-2.271,4.02-5.091,4.02-2.611,0-4.49-1.175-5.326-3.055l2.428-1.41a2.867,2.867,0,0,0,2.9,1.88c1.253,0,2.219-.418,2.219-1.462,0-2.324-7.023-1.018-7.023-5.691,0-2.454,2.115-3.994,4.778-3.994a5.256,5.256,0,0,1,4.83,2.715l-2.376,1.331a2.545,2.545,0,0,0-2.454-1.488C161.371,8.883,160.483,9.327,160.483,10.267Zm12.035,0c0,2.376,7.023.94,7.023,5.77,0,2.611-2.271,4.02-5.091,4.02-2.611,0-4.49-1.175-5.326-3.055l2.428-1.41a2.867,2.867,0,0,0,2.9,1.88c1.253,0,2.219-.418,2.219-1.462,0-2.324-7.023-1.018-7.023-5.691,0-2.454,2.115-3.994,4.778-3.994a5.256,5.256,0,0,1,4.83,2.715l-2.376,1.331a2.545,2.545,0,0,0-2.454-1.488C173.406,8.883,172.518,9.327,172.518,10.267Z" fill="#2d3748" fill-rule="evenodd"/></g></g></svg>