<svg width="269px" height="42px" viewBox="0 0 269 42" version="1.1" xmlns="http://www.w3.org/2000/svg" xmlns:xlink="http://www.w3.org/1999/xlink">
    <g  stroke="none" stroke-width="1" fill="none" fill-rule="evenodd">
        <g  transform="translate(-52.000000, -36.000000)">
            <g  transform="translate(52.000000, 36.000000)">
                <path d="M0.19805037,27.0628571 L1.83307373,24.32 C2.19641226,23.7714286 2.92308931,23.7714286 3.28642784,23.9542857 C3.4680971,24.1371429 7.10148235,26.6971429 9.82652129,26.6971429 C12.1882217,26.6971429 13.8232451,25.2342857 13.8232451,23.2228571 C13.8232451,21.0285714 12.0065524,19.3828571 8.19149793,17.92 C4.01310489,16.2742857 0.0163811072,13.5314286 0.0163811072,8.41142857 C0.0163811072,4.57142857 2.92308931,0 9.82652129,0 C14.3682529,0 17.6382996,2.37714286 18.5466459,2.92571429 C18.9099844,3.10857143 19.0916537,4.02285714 18.7283152,4.38857143 L17.2749611,6.94857143 C16.9116225,7.49714286 16.3666147,7.86285714 15.821607,7.49714286 C15.4582684,7.31428571 12.1882217,5.12 9.64485203,5.12 C7.10148235,5.12 5.82979751,6.76571429 5.82979751,8.22857143 C5.82979751,10.24 7.46482088,11.7028571 10.9165369,13.1657143 C15.0949299,14.8114286 20,17.3714286 20,23.2228571 C20,27.7942857 16.1849455,32 10.0081906,32 C4.55811267,32 1.28806595,29.44 0.379719633,28.5257143 C0.0163811072,27.9771429 -0.165288155,27.7942857 0.19805037,27.0628571 Z" id="Path" fill="#171E28"></path>
                <path d="M34.4,5.64705882 L27,5.64705882 C26.4,5.64705882 26,5.27058824 26,4.70588235 L26,0.941176471 C26,0.564705882 26.4,0 27,0 L48,0 C48.6,0 49,0.376470588 49,0.941176471 L49,4.70588235 C49,5.08235294 48.6,5.64705882 48,5.64705882 L40.6,5.64705882 L40.6,31.0588235 C40.6,31.4352941 40.2,32 39.6,32 L35.2,32 C34.8,32 34.2,31.6235294 34.2,31.0588235 L34.2,5.64705882 L34.4,5.64705882 Z" id="Path" fill="#171E28"></path>
                <path d="M52.1469808,30.6976744 L66.1967229,0.558139535 C66.3840527,0.372093023 66.5713826,0 66.9460424,0 L67.3207022,0 C67.695362,0 67.8826919,0.186046512 68.0700218,0.558139535 L81.9324339,30.6976744 C82.1197638,31.255814 81.7493196,32 81,32 L77,32 C76.2506804,32 76.3125371,31.627907 75.9378773,30.8837209 L73.8772485,26.2325581 L60.3894962,26.2325581 L58.1415374,31.0697674 C57.9542075,31.4418605 57.5795478,32 56.8302282,32 L52.8963004,32 C52.1469808,32 51.7723211,31.255814 52.1469808,30.6976744 Z M71.6292898,21.2093023 L67.1333723,11.3488372 L66.9460424,11.3488372 L62.6374549,21.2093023 L71.6292898,21.2093023 Z" id="Shape" fill="#171E28" fill-rule="nonzero"></path>
                <path d="M103.932886,0 C108.214765,0 112.107383,1.47126437 115.416107,4.04597701 C115.805369,4.4137931 115.805369,4.96551724 115.416107,5.33333333 L112.496644,8.27586207 C112.107383,8.64367816 111.718121,8.64367816 111.328859,8.27586207 C109.38255,6.62068966 106.852349,5.70114943 104.322148,5.70114943 C98.4832215,5.70114943 93.8120805,10.4827586 93.8120805,16 C93.8120805,21.5172414 98.4832215,26.1149425 104.322148,26.1149425 C107.04698,26.1149425 108.993289,25.3793103 109.966443,25.0114943 L109.966443,21.3333333 L106.268456,21.3333333 C105.684564,21.3333333 105.295302,20.9655172 105.295302,20.5977011 L105.295302,17.1034483 C105.295302,16.5517241 105.684564,16.183908 106.268456,16.183908 L115.221477,16.183908 C115.610738,16.183908 116,16.5517241 116,17.1034483 L116,28.3218391 C116,28.6896552 115.805369,28.8735632 115.610738,29.0574713 C115.610738,29.0574713 110.744966,32 103.932886,32 C94.590604,32 87,25.0114943 87,16.183908 C87,7.35632184 94.590604,0 103.932886,0 Z" id="Path" fill="#171E28"></path>
                <path d="M125.183486,0.930232558 C125.183486,0.558139535 125.550459,0 126.100917,0 L144.082569,0 C144.633028,0 145,0.372093023 145,0.930232558 L145,4.65116279 C145,5.02325581 144.633028,5.58139535 144.082569,5.58139535 L131.055046,5.58139535 L131.055046,13.0232558 L142.06422,13.0232558 C142.431193,13.0232558 142.981651,13.3953488 142.981651,13.9534884 L142.981651,17.6744186 C142.981651,18.2325581 142.614679,18.6046512 142.06422,18.6046512 L131.055046,18.6046512 L131.055046,26.4186047 L144.082569,26.4186047 C144.633028,26.4186047 145,26.7906977 145,27.3488372 L145,31.0697674 C145,31.4418605 144.633028,32 144.082569,32 L125.917431,32 C125.366972,32 125,31.627907 125,31.0697674 L125,0.930232558 L125.183486,0.930232558 Z" id="Path" fill="#171E28"></path>
                <path d="M154,0.946745562 C154,0.568047337 154.39726,0 154.794521,0 L166.116438,0 C175.452055,0 183,7.19526627 183,15.9053254 C183,24.8047337 175.452055,32 166.116438,32 L154.794521,32 C154.39726,32 154,31.6213018 154,31.0532544 L154,0.946745562 Z M165.333333,25.9874674 C171.45679,25.9874674 176.967554,21.9181818 176.967554,16 C176.967554,10.0818182 171.45679,6 165.333333,6 L160,6 L160,25.9874674 L165.333333,25.9874674 Z" id="Shape" fill="#171E28" fill-rule="nonzero"></path>
                <path d="M192,0.941176471 C192,0.564705882 192.375,0 192.9375,0 L197.0625,0 C197.4375,0 198,0.376470588 198,0.941176471 L198,31.0588235 C198,31.4352941 197.625,32 197.0625,32 L192.9375,32 C192.5625,32 192,31.6235294 192,31.0588235 L192,0.941176471 Z" id="Path" fill="#171E28"></path>
                <path d="M249,0.930232558 C249,0.558139535 249.37037,0 249.925926,0 L268.074074,0 C268.62963,0 269,0.372093023 269,0.930232558 L269,4.65116279 C269,5.02325581 268.62963,5.58139535 268.074074,5.58139535 L254.925926,5.58139535 L254.925926,13.0232558 L266.037037,13.0232558 C266.407407,13.0232558 266.962963,13.3953488 266.962963,13.9534884 L266.962963,17.6744186 C266.962963,18.2325581 266.592593,18.6046512 266.037037,18.6046512 L254.925926,18.6046512 L254.925926,26.4186047 L268.074074,26.4186047 C268.62963,26.4186047 269,26.7906977 269,27.3488372 L269,31.0697674 C269,31.4418605 268.62963,32 268.074074,32 L249.925926,32 C249.37037,32 249,31.627907 249,31.0697674 L249,0.930232558 Z" id="Path" fill="#171E28"></path>
                <g transform="translate(207.000000, 0.000000)" fill="#1F9A94">
                    <path d="M15.0491989,31.4385965 C15.2477774,31.625731 15.446356,32 15.8435131,32 L16.2406703,32 C16.6378274,32 16.8364059,31.8128655 17.0349845,31.4385965 L31.9283767,1.12280702 C32.1269553,0.561403509 31.9283767,0 31.1340625,0 L26.1695984,0 C25.7724413,0 25.3752842,0.187134503 25.3752842,0.561403509 L16.2406703,20.0233918 L15.8435131,20.0233918 L6.70889924,0.561403509 C6.70889924,0.374269006 6.31174211,0 5.91458499,0 L0.950120916,0 C0.155806665,0 -0.241350461,0.561403509 0.155806665,1.12280702 L15.0491989,31.4385965 Z" id="Path"></path>
                    <path d="M30.5555556,36 L0.925925926,36 C0.555555556,36 0,36.3609375 0,36.9023437 L0,40.8726562 C0,41.2335937 0.37037037,41.775 0.925925926,41.775 L30.5555556,41.775 C30.9259259,41.775 31.4814815,41.4140625 31.4814815,40.8726562 L31.4814815,36.9023437 C31.2962963,36.3609375 30.9259259,36 30.5555556,36 Z" id="Path"></path>
                </g>
            </g>
        </g>
    </g>
</svg>