<svg xmlns="http://www.w3.org/2000/svg" width="40" height="40" viewBox="0 0 40 40"><path d="M36.165,16.562a3.672,3.672,0,0,1,3.793,3.329c.72,9.324-7.806,19.769-19.82,20.1A19.858,19.858,0,0,1,0,19.864a3.5,3.5,0,0,1,7.01,0A12.846,12.846,0,0,0,19.966,33c7.97-.222,13.152-7.129,12.882-12.769A3.5,3.5,0,0,1,36.165,16.562Z"/><path d="M27.273,20a3.651,3.651,0,0,1,3.667-3.636h5.343a3.637,3.637,0,1,1,0,7.273H30.939A3.652,3.652,0,0,1,27.273,20Z"/><path d="M16.364,20A3.636,3.636,0,1,1,20,23.636,3.637,3.637,0,0,1,16.364,20Z"/><path d="M23.633,3.343a3.5,3.5,0,0,1-3.36,3.629c-8.357.345-13.458,6.856-13.21,13.038A3.47,3.47,0,0,1,3.73,23.634a3.609,3.609,0,0,1-3.716-3.4C-.391,10.158,8.071.2,19.983,0A3.5,3.5,0,0,1,23.633,3.343Z" fill-rule="evenodd"/></svg>